<svg xmlns="http://www.w3.org/2000/svg" width="25" height="25" viewBox="0 0 25 25" fill="none">
  <path d="M5.66675 19.3247H7.09175L16.8667 9.54971L15.4417 8.12471L5.66675 17.8997V19.3247ZM3.66675 21.3247V17.0747L16.8667 3.89971C17.0667 3.71637 17.2877 3.57471 17.5297 3.47471C17.7717 3.37471 18.0257 3.32471 18.2917 3.32471C18.5577 3.32471 18.8161 3.37471 19.0667 3.47471C19.3174 3.57471 19.5341 3.72471 19.7167 3.92471L21.0917 5.32471C21.2917 5.50804 21.4377 5.72471 21.5297 5.97471C21.6217 6.22471 21.6674 6.47471 21.6667 6.72471C21.6667 6.99137 21.6211 7.24571 21.5297 7.48771C21.4384 7.72971 21.2924 7.95037 21.0917 8.14971L7.91675 21.3247H3.66675ZM16.1417 8.84971L15.4417 8.12471L16.8667 9.54971L16.1417 8.84971Z" fill="#397AFF" fill-opacity="0.25"/>
</svg>