<svg width="135" height="51" viewBox="0 0 135 51" fill="none" xmlns="http://www.w3.org/2000/svg">
<rect y="9.5" width="32" height="32" rx="2" fill="#9CBDFF"/>
<rect x="6" y="15.5" width="20" height="20" rx="2" fill="#0054FF"/>
<path d="M41.2074 17.5831V13.2727H61.5156V17.5831H53.9453V38H48.7777V17.5831H41.2074ZM64.7635 38V19.4545H69.907V38H64.7635ZM67.3473 17.0639C66.5826 17.0639 65.9266 16.8104 65.3793 16.3033C64.84 15.7881 64.5703 15.1723 64.5703 14.456C64.5703 13.7476 64.84 13.1399 65.3793 12.6328C65.9266 12.1177 66.5826 11.8601 67.3473 11.8601C68.112 11.8601 68.764 12.1177 69.3033 12.6328C69.8506 13.1399 70.1243 13.7476 70.1243 14.456C70.1243 15.1723 69.8506 15.7881 69.3033 16.3033C68.764 16.8104 68.112 17.0639 67.3473 17.0639ZM91.3169 19.4545L84.8333 38H79.0378L72.5542 19.4545H77.9874L81.839 32.7237H82.0321L85.8716 19.4545H91.3169ZM93.949 38V19.4545H99.0925V38H93.949ZM96.5328 17.0639C95.7682 17.0639 95.1122 16.8104 94.5648 16.3033C94.0255 15.7881 93.7559 15.1723 93.7559 14.456C93.7559 13.7476 94.0255 13.1399 94.5648 12.6328C95.1122 12.1177 95.7682 11.8601 96.5328 11.8601C97.2975 11.8601 97.9495 12.1177 98.4888 12.6328C99.0362 13.1399 99.3098 13.7476 99.3098 14.456C99.3098 15.1723 99.0362 15.7881 98.4888 16.3033C97.9495 16.8104 97.2975 17.0639 96.5328 17.0639ZM113.077 19.4545V23.3182H101.909V19.4545H113.077ZM104.444 15.0114H109.588V32.3011C109.588 32.776 109.66 33.1463 109.805 33.4119C109.95 33.6695 110.151 33.8506 110.409 33.9553C110.674 34.0599 110.98 34.1122 111.326 34.1122C111.568 34.1122 111.809 34.0921 112.051 34.0518C112.292 34.0036 112.477 33.9673 112.606 33.9432L113.415 37.7706C113.158 37.8511 112.795 37.9437 112.328 38.0483C111.862 38.161 111.294 38.2294 110.626 38.2536C109.386 38.3018 108.3 38.1368 107.366 37.7585C106.44 37.3802 105.72 36.7926 105.205 35.9957C104.69 35.1989 104.436 34.1927 104.444 32.9773V15.0114ZM119.603 44.9545C118.951 44.9545 118.339 44.9022 117.768 44.7976C117.204 44.701 116.737 44.5762 116.367 44.4233L117.526 40.5838C118.13 40.7689 118.673 40.8696 119.156 40.8857C119.647 40.9018 120.07 40.7891 120.424 40.5476C120.786 40.3061 121.08 39.8956 121.305 39.3161L121.607 38.5312L114.955 19.4545H120.364L124.203 33.0739H124.396L128.272 19.4545H133.717L126.509 40.0043C126.163 41.0024 125.692 41.8717 125.097 42.6122C124.509 43.3608 123.764 43.9363 122.863 44.3388C121.961 44.7493 120.875 44.9545 119.603 44.9545Z" fill="#2A2E33"/>
</svg>
